<?xml version="1.0" encoding="UTF-8" standalone="no"?>
<!-- Created with Fritzing (http://www.fritzing.org/) -->

<svg
   xmlns:dc="http://purl.org/dc/elements/1.1/"
   xmlns:cc="http://creativecommons.org/ns#"
   xmlns:rdf="http://www.w3.org/1999/02/22-rdf-syntax-ns#"
   xmlns:svg="http://www.w3.org/2000/svg"
   xmlns="http://www.w3.org/2000/svg"
   xmlns:sodipodi="http://sodipodi.sourceforge.net/DTD/sodipodi-0.dtd"
   xmlns:inkscape="http://www.inkscape.org/namespaces/inkscape"
   width="27"
   x="0in"
   version="1.2"
   y="0in"
   height="54.000004"
   viewBox="0 0 21.6 43.2"
   id="svg2"
   inkscape:version="0.48.4 r9939"
   sodipodi:docname="TSOC-6_breadboard.svg">
  <metadata
     id="metadata199">
    <rdf:RDF>
      <cc:Work
         rdf:about="">
        <dc:format>image/svg+xml</dc:format>
        <dc:type
           rdf:resource="http://purl.org/dc/dcmitype/StillImage" />
        <dc:title />
      </cc:Work>
    </rdf:RDF>
  </metadata>
  <defs
     id="defs197" />
  <sodipodi:namedview
     pagecolor="#ffffff"
     bordercolor="#666666"
     borderopacity="1"
     objecttolerance="10"
     gridtolerance="10"
     guidetolerance="10"
     inkscape:pageopacity="0"
     inkscape:pageshadow="2"
     inkscape:window-width="1920"
     inkscape:window-height="1028"
     id="namedview195"
     showgrid="false"
     inkscape:zoom="6.1806365"
     inkscape:cx="35.860302"
     inkscape:cy="24.206357"
     inkscape:window-x="-8"
     inkscape:window-y="-8"
     inkscape:window-maximized="1"
     inkscape:current-layer="breadboard" />
  <desc
     id="desc4">Fritzing breadboard generated by brd2svg</desc>
  <g
     id="breadboard"
     style="stroke-width:0">
    <g
       id="icon"
       style="stroke-width:0"
       transform="scale(0.75,1)">
      <path
         d="m 0,0 0,19.44 a 2.16,2.16 0 0 1 0,4.32 L 0,43.2 28.8,43.2 28.8,0 0,0 z"
         id="path8"
         inkscape:connector-curvature="0"
         style="fill:#1f7a34;stroke:none" />
      <g
         transform="translate(7.488,11.052)"
         id="g10"
         style="stroke-width:0">
        <g
           transform="matrix(0.5,0,0,0.5,3.456,5.274)"
           id="g12"
           style="stroke-width:0">
          <rect
             width="1.728"
             x="0.648"
             y="14.832"
             height="6.2639999"
             id="rect14"
             style="fill:#8c8c8c;stroke:none" />
          <rect
             width="1.728"
             x="4.2480001"
             y="14.832"
             height="6.2639999"
             id="rect16"
             style="fill:#8c8c8c;stroke:none" />
          <rect
             width="1.728"
             x="7.848"
             y="14.832"
             height="6.2639999"
             id="rect18"
             style="fill:#8c8c8c;stroke:none" />
          <rect
             width="1.728"
             x="11.448"
             y="14.832"
             height="6.2639999"
             id="rect20"
             style="fill:#8c8c8c;stroke:none" />
          <rect
             width="1.728"
             x="11.448"
             y="0"
             height="6.2639999"
             id="rect22"
             style="fill:#8c8c8c;stroke:none" />
          <rect
             width="1.728"
             x="7.848"
             y="0"
             height="6.2639999"
             id="rect24"
             style="fill:#8c8c8c;stroke:none" />
          <rect
             width="1.728"
             x="4.2480001"
             y="0"
             height="6.2639999"
             id="rect26"
             style="fill:#8c8c8c;stroke:none" />
          <rect
             width="1.728"
             x="0.648"
             y="0"
             height="6.2639999"
             id="rect28"
             style="fill:#8c8c8c;stroke:none" />
          <rect
             width="13.3908"
             x="0.21656699"
             y="5.43713"
             height="10.2218"
             id="rect30"
             style="fill:#303030;stroke:none" />
          <polygon
             points="0.936569,6.15713 0.216567,5.43713 13.6074,5.43713 12.8874,6.15713 "
             id="polygon32"
             style="fill:#1f1f1f;stroke-width:0" />
          <polygon
             points="0.936569,14.9388 0.216567,15.6588 13.6074,15.6588 12.8874,14.9388 "
             id="polygon34"
             style="fill:#1f1f1f;stroke-width:0" />
          <polygon
             points="0.936569,6.15713 0.216567,5.43713 0.216567,15.6588 0.936569,14.9388 "
             id="polygon36"
             style="fill:#000000;stroke-width:0" />
          <polygon
             points="12.8874,6.15713 13.6074,5.43713 13.6074,15.6588 12.8874,14.9388 "
             id="polygon38"
             style="fill:#3d3d3d;stroke-width:0" />
          <circle
             cx="2.37657"
             cy="13.4988"
             r="0.72000003"
             id="circle40"
             d="m 3.09657,13.4988 c 0,0.397645 -0.322355,0.72 -0.72,0.72 -0.397645,0 -0.72,-0.322355 -0.72,-0.72 0,-0.397645 0.322355,-0.72 0.72,-0.72 0.397645,0 0.72,0.322355 0.72,0.72 z"
             sodipodi:cx="2.37657"
             sodipodi:cy="13.4988"
             sodipodi:rx="0.72000003"
             sodipodi:ry="0.72000003"
             style="fill:#1f1f1f;stroke:none" />
        </g>
      </g>
      <text
         x="3.5999999"
         y="23.355"
         id="label"
         font-size="4.68"
         style="font-size:4.67999983px;text-anchor:start;fill:#ffffff;stroke:none;font-family:OCRA">TSOC-6</text>
      <g
         transform="translate(5.7452833,37.8756)"
         id="g43"
         style="stroke-width:0">
        <g
           transform="matrix(0,-1,1,0,0,0)"
           id="g45"
           style="stroke-width:0">
          <text
             x="0"
             y="0"
             font-size="3.24"
             id="text47"
             style="font-size:3.24000001px;text-anchor:start;fill:#ffffff;stroke:none;font-family:OCRA">1T</text>
        </g>
      </g>
      <g
         transform="translate(5.9526561,5.5185548)"
         id="g49"
         style="stroke-width:0">
        <g
           transform="matrix(0,-1,1,0,0,0)"
           id="g51"
           style="stroke-width:0">
          <text
             x="0"
             y="0"
             font-size="3.24"
             id="text53"
             style="font-size:3.24000001px;text-anchor:end;fill:#ffffff;stroke:none;font-family:OCRA">6</text>
        </g>
      </g>
      <g
         transform="translate(15.398617,37.8756)"
         id="g55"
         style="stroke-width:0">
        <g
           transform="matrix(0,-1,1,0,0,0)"
           id="g57"
           style="stroke-width:0">
          <text
             x="0"
             y="0"
             font-size="3.24"
             id="text59"
             style="font-size:3.24000001px;text-anchor:start;fill:#ffffff;stroke:none;font-family:OCRA">2</text>
        </g>
      </g>
      <g
         transform="translate(11.772,5.1520334)"
         id="g61"
         style="stroke-width:0">
        <g
           transform="matrix(0,-1,1,0,3.7968041,0.38830951)"
           id="g63"
           style="stroke-width:0">
          <text
             x="0"
             y="0"
             font-size="3.24"
             id="text65"
             style="font-size:3.24000001px;text-anchor:end;fill:#ffffff;stroke:none;font-family:OCRA">5</text>
        </g>
      </g>
      <g
         transform="translate(25.05195,37.8756)"
         id="g67"
         style="stroke-width:0">
        <g
           transform="matrix(0,-1,1,0,0,0)"
           id="g69"
           style="stroke-width:0">
          <text
             x="0"
             y="0"
             font-size="3.24"
             id="text71"
             style="font-size:3.24000001px;text-anchor:start;fill:#ffffff;stroke:none;font-family:OCRA">3</text>
        </g>
      </g>
      <g
         transform="translate(18.972,5.3145475)"
         id="g73"
         style="stroke-width:0">
        <g
           transform="matrix(0,-1,1,0,6.1266612,0.19415476)"
           id="g75"
           style="stroke-width:0">
          <text
             x="0"
             y="0"
             font-size="3.24"
             id="text77"
             style="font-size:3.24000001px;text-anchor:end;fill:#ffffff;stroke:none;font-family:OCRA">4</text>
        </g>
      </g>
      <g
         transform="translate(26.172,37.8756)"
         id="g79"
         style="stroke-width:0" />
      <g
         transform="translate(26.172,5.3244)"
         id="g85"
         style="stroke-width:0" />
    </g>
    <g
       id="connector0pin"
       transform="translate(2.45052,38.4516)"
       style="stroke-width:0">
      <rect
         width="2.29896"
         x="0"
         y="0"
         height="2.2967999"
         id="rect92"
         style="fill:#8d8c8c;stroke-width:0" />
      <rect
         width="1.18398"
         x="0.56098998"
         y="0.556952"
         height="1.18189"
         id="rect94"
         style="fill:#8c8663;stroke-width:0" />
      <polygon
         points="0,0 0,2.2968 0.56099,1.73785 0.56099,0.501957 "
         id="polygon96"
         style="fill:#b8af82;stroke-width:0" />
      <polygon
         points="2.29896,0 1.74297,0.558951 0.56899,0.558951 0,0 "
         id="polygon98"
         style="fill:#80795b;stroke-width:0" />
      <polygon
         points="2.29896,2.2968 1.74297,1.73785 1.74297,0.558951 2.29896,0 "
         id="polygon100"
         style="fill:#5e5b43;stroke-width:0" />
      <polygon
         points="2.29896,2.2968 0,2.2968 0.56699,1.73785 1.74297,1.73785 "
         id="polygon102"
         style="fill:#9a916c;stroke-width:0" />
    </g>
    <g
       id="connector5pin"
       transform="translate(2.45052,2.4516)"
       style="stroke-width:0">
      <rect
         width="2.29896"
         x="0"
         y="0"
         height="2.2967999"
         id="rect105"
         style="fill:#8d8c8c;stroke-width:0" />
      <rect
         width="1.18398"
         x="0.56098998"
         y="0.556952"
         height="1.18189"
         id="rect107"
         style="fill:#8c8663;stroke-width:0" />
      <polygon
         points="0,0 0,2.2968 0.56099,1.73785 0.56099,0.501957 "
         id="polygon109"
         style="fill:#b8af82;stroke-width:0" />
      <polygon
         points="2.29896,0 1.74297,0.558951 0.56899,0.558951 0,0 "
         id="polygon111"
         style="fill:#80795b;stroke-width:0" />
      <polygon
         points="2.29896,2.2968 1.74297,1.73785 1.74297,0.558951 2.29896,0 "
         id="polygon113"
         style="fill:#5e5b43;stroke-width:0" />
      <polygon
         points="2.29896,2.2968 0,2.2968 0.56699,1.73785 1.74297,1.73785 "
         id="polygon115"
         style="fill:#9a916c;stroke-width:0" />
    </g>
    <g
       id="connector1pin"
       transform="translate(9.65052,38.4516)"
       style="stroke-width:0">
      <rect
         width="2.29896"
         x="0"
         y="0"
         height="2.2967999"
         id="rect118"
         style="fill:#8d8c8c;stroke-width:0" />
      <rect
         width="1.18398"
         x="0.56098998"
         y="0.556952"
         height="1.18189"
         id="rect120"
         style="fill:#8c8663;stroke-width:0" />
      <polygon
         points="0,0 0,2.2968 0.56099,1.73785 0.56099,0.501957 "
         id="polygon122"
         style="fill:#b8af82;stroke-width:0" />
      <polygon
         points="2.29896,0 1.74297,0.558951 0.56899,0.558951 0,0 "
         id="polygon124"
         style="fill:#80795b;stroke-width:0" />
      <polygon
         points="2.29896,2.2968 1.74297,1.73785 1.74297,0.558951 2.29896,0 "
         id="polygon126"
         style="fill:#5e5b43;stroke-width:0" />
      <polygon
         points="2.29896,2.2968 0,2.2968 0.56699,1.73785 1.74297,1.73785 "
         id="polygon128"
         style="fill:#9a916c;stroke-width:0" />
    </g>
    <g
       id="connector4pin"
       transform="translate(9.65052,2.4516)"
       style="stroke-width:0"
       inkscape:label="#connector4pin">
      <rect
         width="2.29896"
         x="0"
         y="0"
         height="2.2967999"
         id="rect131"
         style="fill:#8d8c8c;stroke-width:0" />
      <rect
         width="1.18398"
         x="0.56098998"
         y="0.556952"
         height="1.18189"
         id="rect133"
         style="fill:#8c8663;stroke-width:0" />
      <polygon
         points="0,0 0,2.2968 0.56099,1.73785 0.56099,0.501957 "
         id="polygon135"
         style="fill:#b8af82;stroke-width:0" />
      <polygon
         points="2.29896,0 1.74297,0.558951 0.56899,0.558951 0,0 "
         id="polygon137"
         style="fill:#80795b;stroke-width:0" />
      <polygon
         points="2.29896,2.2968 1.74297,1.73785 1.74297,0.558951 2.29896,0 "
         id="polygon139"
         style="fill:#5e5b43;stroke-width:0" />
      <polygon
         points="2.29896,2.2968 0,2.2968 0.56699,1.73785 1.74297,1.73785 "
         id="polygon141"
         style="fill:#9a916c;stroke-width:0" />
    </g>
    <g
       id="connector2pin"
       transform="translate(16.8505,38.4516)"
       style="stroke-width:0">
      <rect
         width="2.29896"
         x="0"
         y="0"
         height="2.2967999"
         id="rect144"
         style="fill:#8d8c8c;stroke-width:0" />
      <rect
         width="1.18398"
         x="0.56098998"
         y="0.556952"
         height="1.18189"
         id="rect146"
         style="fill:#8c8663;stroke-width:0" />
      <polygon
         points="0,0 0,2.2968 0.56099,1.73785 0.56099,0.501957 "
         id="polygon148"
         style="fill:#b8af82;stroke-width:0" />
      <polygon
         points="2.29896,0 1.74297,0.558951 0.56899,0.558951 0,0 "
         id="polygon150"
         style="fill:#80795b;stroke-width:0" />
      <polygon
         points="2.29896,2.2968 1.74297,1.73785 1.74297,0.558951 2.29896,0 "
         id="polygon152"
         style="fill:#5e5b43;stroke-width:0" />
      <polygon
         points="2.29896,2.2968 0,2.2968 0.56699,1.73785 1.74297,1.73785 "
         id="polygon154"
         style="fill:#9a916c;stroke-width:0" />
    </g>
    <g
       id="connector3pin"
       transform="translate(16.8505,2.4516)"
       style="stroke-width:0"
       inkscape:label="#connector3pin">
      <rect
         width="2.29896"
         x="0"
         y="0"
         height="2.2967999"
         id="rect157"
         style="fill:#8d8c8c;stroke-width:0" />
      <rect
         width="1.18398"
         x="0.56098998"
         y="0.556952"
         height="1.18189"
         id="rect159"
         style="fill:#8c8663;stroke-width:0" />
      <polygon
         points="0,0 0,2.2968 0.56099,1.73785 0.56099,0.501957 "
         id="polygon161"
         style="fill:#b8af82;stroke-width:0" />
      <polygon
         points="2.29896,0 1.74297,0.558951 0.56899,0.558951 0,0 "
         id="polygon163"
         style="fill:#80795b;stroke-width:0" />
      <polygon
         points="2.29896,2.2968 1.74297,1.73785 1.74297,0.558951 2.29896,0 "
         id="polygon165"
         style="fill:#5e5b43;stroke-width:0" />
      <polygon
         points="2.29896,2.2968 0,2.2968 0.56699,1.73785 1.74297,1.73785 "
         id="polygon167"
         style="fill:#9a916c;stroke-width:0" />
    </g>
  </g>
</svg>
