<?xml version="1.0" encoding="UTF-8" standalone="no"?>
<!-- Created with Fritzing (http://www.fritzing.org/) -->

<svg
   xmlns:dc="http://purl.org/dc/elements/1.1/"
   xmlns:cc="http://creativecommons.org/ns#"
   xmlns:rdf="http://www.w3.org/1999/02/22-rdf-syntax-ns#"
   xmlns:svg="http://www.w3.org/2000/svg"
   xmlns="http://www.w3.org/2000/svg"
   xmlns:sodipodi="http://sodipodi.sourceforge.net/DTD/sodipodi-0.dtd"
   xmlns:inkscape="http://www.inkscape.org/namespaces/inkscape"
   width="0.743889in"
   x="0in"
   version="1.2"
   y="0in"
   height="1in"
   viewBox="0 0 743.889 1000"
   id="svg2"
   inkscape:version="0.91 r13725"
   sodipodi:docname="breadboard.svg">
  <metadata
     id="metadata110">
    <rdf:RDF>
      <cc:Work
         rdf:about="">
        <dc:format>image/svg+xml</dc:format>
        <dc:type
           rdf:resource="http://purl.org/dc/dcmitype/StillImage" />
      </cc:Work>
    </rdf:RDF>
  </metadata>
  <defs
     id="defs108" />
  <sodipodi:namedview
     pagecolor="#ffffff"
     bordercolor="#666666"
     borderopacity="1"
     objecttolerance="10"
     gridtolerance="10"
     guidetolerance="10"
     inkscape:pageopacity="0"
     inkscape:pageshadow="2"
     inkscape:window-width="1920"
     inkscape:window-height="1028"
     id="namedview106"
     showgrid="false"
     inkscape:zoom="10.488889"
     inkscape:cx="4.0123477"
     inkscape:cy="54.104549"
     inkscape:window-x="-8"
     inkscape:window-y="-8"
     inkscape:window-maximized="1"
     inkscape:current-layer="breadboard" />
  <desc
     id="desc4">Fritzing breadboard generated by brd2svg</desc>
  <g
     id="breadboard">
    <g
       id="icon">
      <path
         fill="#1F7A34"
         stroke="none"
         stroke-width="0"
         d="M0,0L0,470A30,30 0 0 1 0,530L0,1000L743.889,1000L743.889,0L0,0z"
         id="path8" />
      <path
         style="fill:#4d4d4d"
         inkscape:connector-curvature="0"
         id="path5"
         d="m 184.10035,232.41753 0,518.1055 17.7667,0 0,18.9667 185.9222,0 1.2889,-12.1778 5.8445,0 1.2889,12.1778 186.1555,0 0,-18.9667 17.7556,0 0,-518.1055 z m 138.0889,401.07783 c -0.6222,3.41111 -4.4,6.16666 -8.8333,6.16666 l -49.4556,0 c -4.4111,0 -8.4444,-2.82222 -8.8777,-6.16666 l -31.1778,-229.83337 c -0.5667,-3.38889 2.8444,-6.18889 7.1778,-6.18889 l 7.2777,0 c 4.4,0 8.4111,2.82223 8.8889,6.18889 l 23.4889,193.15558 c 0.3667,3.44445 4.1445,6.2 8.8111,6.2 l 18.3556,0 c 4.2555,0 8.4444,-2.8 8.8555,-6.2 l 23.3778,-193.16669 c 0.5222,-3.36666 4.1445,-6.16666 8.8556,-6.16666 l 7.1778,-0.0222 c 4.3777,0 7.7,2.82223 7.2666,6.16667 z m 207.0445,0 c -0.6111,3.41111 -4.4,6.16666 -8.8556,6.16666 l -49.4333,0 c -4.4,0 -8.4445,-2.82222 -8.9,-6.16666 l -31.1889,-229.83337 c -0.5444,-3.38889 2.8667,-6.18889 7.1778,-6.18889 l 7.2666,0 c 4.4,0 8.4,2.82223 8.8556,6.18889 l 23.5333,193.15558 c 0.3445,3.44445 4.1223,6.2 8.8111,6.2 l 18.3334,0 c 4.2555,0 8.4444,-2.8 8.8555,-6.2 l 23.3889,-193.16669 c 0.5445,-3.36666 4.1445,-6.16666 8.8334,-6.16666 l 7.1777,-0.0222 c 4.3889,0 7.7,2.82223 7.2667,6.16667 z"
         sodipodi:nodetypes="ccccccccccccccssccssccsscccccccssccssccsscccccc" />
      <rect
         style="fill:#808080"
         id="rect7"
         height="371.53339"
         width="357.64447"
         y="277.67856"
         x="213.37816" />
      <rect
         style="fill:#f2f2f2"
         id="rect9"
         height="19.444447"
         width="357.64447"
         y="726.98975"
         x="213.37816" />
      <path
         style="fill:#b0b0b0"
         inkscape:connector-curvature="0"
         id="path11"
         d="m 584.35595,694.98983 11.1111,0 c 0,5.9444 1.1111,9.8333 3,11.0889 0.7334,0.3444 6.9667,1.1889 11.2889,1.1889 l 0,7.4889 0,3.6222 0,36.7444 0,1.7111 0,9.4 c -6.7222,0 -14.6222,-1.2333 -17.3667,-3.0111 -7.3777,-4.9444 -7.9444,-14.9 -8.0111,-19.3111 l -0.022,-0.022 0,-44.4444 0.2222,0.1222 c -0.2,-1.9333 -0.2222,-3.5667 -0.2222,-4.5778 z" />
      <path
         style="fill:#8f8f8f"
         inkscape:connector-curvature="0"
         id="path13"
         d="m 597.15595,704.53423 c -1.1111,-1.9111 -1.6667,-5.1666 -1.6667,-9.5666 l -11.1111,0 0,47.8333 c 0,3.1222 0.089,11.5 4.7778,17.3778 1.3889,1.6111 2.1,3.4778 9.0333,4.9889 -1.1444,-1.9556 -1.0333,-60.6334 -1.0333,-60.6334 z" />
      <path
         style="fill:#b0b0b0"
         inkscape:connector-curvature="0"
         id="path15"
         d="m 200.00035,694.98983 -11.1111,0 c 0,5.9444 -1.1222,9.8333 -3.0111,11.0889 -0.7222,0.3444 -6.9667,1.1889 -11.2444,1.1889 l 0,7.4889 0,3.6222 0,36.7444 0,1.7111 0,9.4 c 6.7111,0 14.6444,-1.2333 17.3333,-3.0111 7.3889,-4.9444 7.9889,-14.9 8.0333,-19.3111 l 0.011,-0.022 0,-44.4444 -0.2222,0.1222 c 0.2,-1.9333 0.2111,-3.5667 0.2111,-4.5778 z" />
      <path
         style="fill:#8f8f8f"
         inkscape:connector-curvature="0"
         id="path17"
         d="m 186.23375,765.12313 c 6.8777,-1.5 7.6444,-3.4333 9.0222,-5.0111 4.7222,-5.7889 4.7889,-14.1667 4.7889,-17.3222 l 0,-47.8333 -11.1111,0 c 0,4.4 -0.6445,7.6444 -1.6556,9.5222 -0.056,0.056 0.011,58.7333 -1.0444,60.6444 z" />
      <path
         style="fill:#b3b3b3"
         inkscape:connector-curvature="0"
         id="path19"
         d="m 184.10035,192.60077 0,429.03337 17.7667,0 0,18.96667 380.5556,0 0,-18.96667 17.7333,0 0,-429.03337 -416.0556,0 z m 138.0889,401.07781 c -0.6222,3.40001 -4.4,6.15556 -8.8333,6.15556 l -49.4556,0 c -4.4111,0 -8.4444,-2.8 -8.8777,-6.15556 l -31.1778,-229.84447 c -0.5667,-3.37778 2.8444,-6.17778 7.1778,-6.17778 l 7.2777,0 c 4.4,0 8.4111,2.81111 8.8889,6.17778 l 23.4889,193.1778 c 0.3667,3.47778 4.1445,6.23334 8.8111,6.23334 l 18.3556,0 c 4.2555,0 8.4444,-2.84445 8.8555,-6.23334 l 23.3778,-193.16669 c 0.5222,-3.37778 4.1445,-6.16666 8.8556,-6.16666 l 7.1778,-0.0222 c 4.3777,0 7.7,2.81111 7.2666,6.16667 l -31.1889,229.85558 z m 207.0445,0 c -0.6111,3.40001 -4.4,6.15556 -8.8556,6.15556 l -49.4333,0 c -4.4,0 -8.4445,-2.8 -8.9,-6.15556 l -31.1889,-229.84447 c -0.5444,-3.37778 2.8667,-6.17778 7.1778,-6.17778 l 7.2666,0 c 4.4,0 8.4,2.81111 8.8556,6.17778 l 23.5222,193.1778 c 0.3445,3.47778 4.1222,6.23334 8.8111,6.23334 l 18.3334,0 c 4.2555,0 8.4444,-2.84445 8.8555,-6.23334 l 23.3889,-193.16669 c 0.5445,-3.37778 4.1445,-6.16666 8.8333,-6.16666 l 7.1778,-0.0222 c 4.3889,0 7.7,2.81111 7.2667,6.16667 l -31.1111,229.85558 z" />
      <polygon
         style="fill:none"
         id="polygon21"
         points="8.7,33.339 11.81,33.339 11.995,31.708 8.538,31.708 "
         transform="matrix(11.111112,0,0,11.111113,174.63375,270.38977)" />
      <polygon
         style="fill:#939393"
         id="polygon23"
         points="11.995,31.708 11.81,33.339 8.7,33.339 8.538,31.708 "
         transform="matrix(11.111112,0,0,11.111113,174.63375,270.38977)" />
      <polygon
         style="fill:#666666"
         id="polygon25"
         points="11.995,31.708 12.079,31.024 8.442,31.024 8.538,31.708 "
         transform="matrix(11.111112,0,0,11.111113,174.63375,270.38977)" />
      <polygon
         style="fill:none"
         id="polygon27"
         points="27.332,33.339 30.443,33.339 30.625,31.708 27.17,31.708 "
         transform="matrix(11.111112,0,0,11.111113,174.63375,270.38977)" />
      <polygon
         style="fill:#939393"
         id="polygon29"
         points="30.625,31.708 30.443,33.339 27.332,33.339 27.17,31.708 "
         transform="matrix(11.111112,0,0,11.111113,174.63375,270.38977)" />
      <polygon
         style="fill:#666666"
         id="polygon31"
         points="30.625,31.708 30.709,31.024 27.074,31.024 27.17,31.708 "
         transform="matrix(11.111112,0,0,11.111113,174.63375,270.38977)" />
      <line
         style="fill:none;stroke:#ffffff;stroke-width:8.96000099;stroke-linecap:round;stroke-opacity:0.23999999"
         id="line33"
         y2="613.77924"
         x2="190.41148"
         y1="204.43484"
         x1="190.41148" />
      <line
         style="fill:none;stroke:#ffffff;stroke-width:8.96000099;stroke-linecap:round;stroke-opacity:0.23999999"
         id="line35"
         y2="615.44592"
         x2="593.81152"
         y1="204.43484"
         x1="593.81152" />
      <line
         style="fill:none;stroke:#000000;stroke-width:4.4800005;stroke-linecap:round;stroke-opacity:0.15"
         id="line37"
         y2="705.81201"
         x2="204.27818"
         y1="705.81201"
         x1="579.94482" />
      <rect
         style="fill:#b0b0b0"
         id="rect39"
         height="7.2222228"
         width="380.55557"
         y="711.15637"
         x="201.84483" />
      <polygon
         style="fill:#b0b0b0"
         id="polygon41"
         points="19.184,44.626 2.449,44.626 2.449,45.28 19.116,45.28 "
         transform="matrix(11.111112,0,0,11.111113,174.63375,270.38977)" />
      <polygon
         style="fill:#b0b0b0"
         id="polygon43"
         points="19.945,44.626 20.013,45.28 36.699,45.28 36.699,44.626 "
         transform="matrix(11.111112,0,0,11.111113,174.63375,270.38977)" />
      <rect
         style="fill:#f2f2f2"
         id="rect9-4"
         height="19.444447"
         width="357.64447"
         y="666.01788"
         x="212.88683" />
      <path
         style="fill:#b0b0b0"
         inkscape:connector-curvature="0"
         id="path11-8"
         d="m 583.86465,634.01788 11.1111,0 c 0,5.94444 1.1111,9.83333 3,11.08889 0.7333,0.34444 6.9667,1.18889 11.2889,1.18889 l 0,7.48887 0,3.6222 0,36.7445 0,1.7111 0,9.4 c -6.7222,0 -14.6222,-1.2333 -17.3667,-3.0111 -7.3778,-4.9444 -7.9444,-14.9 -8.0111,-19.3111 l -0.022,-0.022 0,-44.44447 0.2222,0.12223 c -0.2,-1.93334 -0.2222,-3.56667 -0.2222,-4.57778 z" />
      <path
         style="fill:#8f8f8f"
         inkscape:connector-curvature="0"
         id="path13-7"
         d="m 596.66465,643.56232 c -1.1111,-1.91111 -1.6667,-5.16666 -1.6667,-9.56666 l -11.1111,0 0,47.83337 c 0,3.1222 0.089,11.5 4.7778,17.3778 1.3889,1.6111 2.1,3.4777 9.0333,4.9888 -1.1444,-1.9555 -1.0333,-60.63331 -1.0333,-60.63331 z" />
      <path
         style="fill:#b0b0b0"
         inkscape:connector-curvature="0"
         id="path15-4"
         d="m 199.50905,634.01788 -11.1111,0 c 0,5.94444 -1.1222,9.83333 -3.0111,11.08889 -0.7222,0.34444 -6.9667,1.18889 -11.2445,1.18889 l 0,7.48887 0,3.6222 0,36.7445 0,1.7111 0,9.4 c 6.7112,0 14.6445,-1.2333 17.3334,-3.0111 7.3889,-4.9444 7.9889,-14.9 8.0333,-19.3111 l 0.011,-0.022 0,-44.44447 -0.2222,0.12223 c 0.2,-1.93334 0.2111,-3.56667 0.2111,-4.57778 z" />
      <path
         style="fill:#8f8f8f"
         inkscape:connector-curvature="0"
         id="path17-1"
         d="m 185.74235,704.15123 c 6.8778,-1.5 7.6445,-3.4333 9.0223,-5.0111 4.7222,-5.7889 4.7889,-14.1667 4.7889,-17.3222 l 0,-47.83338 -11.1112,0 c 0,4.4 -0.6444,7.64444 -1.6555,9.52222 -0.056,0.0555 0.011,58.73336 -1.0445,60.64446 z" />
      <line
         style="fill:none;stroke:#000000;stroke-width:4.4800005;stroke-linecap:round;stroke-opacity:0.15"
         id="line37-8"
         y2="644.84003"
         x2="203.78685"
         y1="644.84003"
         x1="579.45349" />
      <rect
         style="fill:#b0b0b0"
         id="rect39-2"
         height="7.2222228"
         width="380.55557"
         y="650.18445"
         x="201.3535" />
      <polygon
         style="fill:#b0b0b0"
         id="polygon41-5"
         points="2.449,45.28 19.116,45.28 19.184,44.626 2.449,44.626 "
         transform="matrix(11.111112,0,0,11.111113,174.14235,209.41784)" />
      <polygon
         style="fill:#b0b0b0"
         id="polygon43-9"
         points="36.699,45.28 36.699,44.626 19.945,44.626 20.013,45.28 "
         transform="matrix(11.111112,0,0,11.111113,174.14235,209.41784)" />
    </g>
    <g
       transform="translate(205.97779,934.04452)"
       id="gpin1">
      <rect
         style="fill:#8d8c8c"
         width="31.93"
         x="0"
         y="0"
         height="31.9"
         id="connector1pin" />
      <rect
         style="fill:#8c8663"
         width="16.444201"
         x="7.7915301"
         y="7.7354398"
         height="16.415199"
         id="rect83-8" />
      <polygon
         style="fill:#b8af82"
         points="0,31.9 7.79153,24.1368 7.79153,6.97162 0,0 "
         id="polygon85-9" />
      <polygon
         style="fill:#80795b"
         points="24.2079,7.76321 7.90264,7.76321 0,0 31.93,0 "
         id="polygon87-5" />
      <polygon
         style="fill:#5e5b43"
         points="24.2079,24.1368 24.2079,7.76321 31.93,0 31.93,31.9 "
         id="polygon89-9" />
      <polygon
         style="fill:#9a916c"
         points="0,31.9 7.87486,24.1368 24.2079,24.1368 31.93,31.9 "
         id="polygon91-1" />
    </g>
    <g
       transform="translate(305.98,934.05)"
       id="gpin2">
      <rect
         width="31.93"
         x="0"
         y="0"
         height="31.9"
         id="connector2pin"
         style="fill:#8d8c8c" />
      <rect
         width="16.444201"
         x="7.7915301"
         y="7.7354398"
         height="16.415199"
         id="rect57"
         style="fill:#8c8663" />
      <polygon
         points="7.79153,6.97162 0,0 0,31.9 7.79153,24.1368 "
         id="polygon59"
         style="fill:#b8af82" />
      <polygon
         points="0,0 31.93,0 24.2079,7.76321 7.90264,7.76321 "
         id="polygon61"
         style="fill:#80795b" />
      <polygon
         points="31.93,0 31.93,31.9 24.2079,24.1368 24.2079,7.76321 "
         id="polygon63"
         style="fill:#5e5b43" />
      <polygon
         points="24.2079,24.1368 31.93,31.9 0,31.9 7.87486,24.1368 "
         id="polygon65"
         style="fill:#9a916c" />
    </g>
    <g
       transform="translate(405.98,934.05)"
       id="gpin3">
      <rect
         width="31.93"
         x="0"
         y="0"
         height="31.9"
         id="connector3pin"
         style="fill:#8d8c8c" />
      <rect
         width="16.444201"
         x="7.7915301"
         y="7.7354398"
         height="16.415199"
         id="rect83"
         style="fill:#8c8663" />
      <polygon
         points="7.79153,24.1368 7.79153,6.97162 0,0 0,31.9 "
         id="polygon85"
         style="fill:#b8af82" />
      <polygon
         points="7.90264,7.76321 0,0 31.93,0 24.2079,7.76321 "
         id="polygon87"
         style="fill:#80795b" />
      <polygon
         points="24.2079,7.76321 31.93,0 31.93,31.9 24.2079,24.1368 "
         id="polygon89"
         style="fill:#5e5b43" />
      <polygon
         points="7.87486,24.1368 24.2079,24.1368 31.93,31.9 0,31.9 "
         id="polygon91"
         style="fill:#9a916c" />
    </g>
    <g
       transform="translate(505.9778,934.04452)"
       id="gpin4">
      <rect
         style="fill:#8d8c8c"
         width="31.93"
         x="0"
         y="0"
         height="31.9"
         id="connector4pin" />
      <rect
         style="fill:#8c8663"
         width="16.444201"
         x="7.7915301"
         y="7.7354398"
         height="16.415199"
         id="rect83-2" />
      <polygon
         style="fill:#b8af82"
         points="7.79153,6.97162 0,0 0,31.9 7.79153,24.1368 "
         id="polygon85-0" />
      <polygon
         style="fill:#80795b"
         points="0,0 31.93,0 24.2079,7.76321 7.90264,7.76321 "
         id="polygon87-7" />
      <polygon
         style="fill:#5e5b43"
         points="31.93,0 31.93,31.9 24.2079,24.1368 24.2079,7.76321 "
         id="polygon89-1" />
      <polygon
         style="fill:#9a916c"
         points="24.2079,24.1368 31.93,31.9 0,31.9 7.87486,24.1368 "
         id="polygon91-6" />
    </g>
    <g
       transform="translate(205.97779,34.055521)"
       id="gpin5">
      <rect
         style="fill:#8d8c8c"
         width="31.93"
         x="0"
         y="0"
         height="31.9"
         id="connector5pin" />
      <rect
         style="fill:#8c8663"
         width="16.444201"
         x="7.7915301"
         y="7.7354398"
         height="16.415199"
         id="rect83-8-5" />
      <polygon
         style="fill:#b8af82"
         points="0,31.9 7.79153,24.1368 7.79153,6.97162 0,0 "
         id="polygon85-9-0" />
      <polygon
         style="fill:#80795b"
         points="24.2079,7.76321 7.90264,7.76321 0,0 31.93,0 "
         id="polygon87-5-9" />
      <polygon
         style="fill:#5e5b43"
         points="24.2079,24.1368 24.2079,7.76321 31.93,0 31.93,31.9 "
         id="polygon89-9-4" />
      <polygon
         style="fill:#9a916c"
         points="0,31.9 7.87486,24.1368 24.2079,24.1368 31.93,31.9 "
         id="polygon91-1-8" />
    </g>
    <g
       transform="translate(305.98,34.05)"
       id="gpin6">
      <rect
         width="31.93"
         x="0"
         y="0"
         height="31.9"
         id="connector6pin"
         style="fill:#8d8c8c" />
      <rect
         width="16.4442"
         x="7.79153"
         y="7.73544"
         fill="#8C8663"
         height="16.4152"
         id="rect70" />
      <polygon
         fill="#B8AF82"
         points="0,31.9,7.79153,24.1368,7.79153,6.97162,0,0"
         id="polygon72" />
      <polygon
         fill="#80795B"
         points="24.2079,7.76321,7.90264,7.76321,0,0,31.93,0"
         id="polygon74" />
      <polygon
         fill="#5E5B43"
         points="24.2079,24.1368,24.2079,7.76321,31.93,0,31.93,31.9"
         id="polygon76" />
      <polygon
         fill="#9A916C"
         points="0,31.9,7.87486,24.1368,24.2079,24.1368,31.93,31.9"
         id="polygon78" />
    </g>
    <g
       transform="translate(405.98,34.05)"
       id="gpin7">
      <rect
         width="31.93"
         x="0"
         y="0"
         fill="#8D8C8C"
         height="31.9"
         id="connector7pin" />
      <rect
         width="16.4442"
         x="7.79153"
         y="7.73544"
         fill="#8C8663"
         height="16.4152"
         id="rect96" />
      <polygon
         fill="#B8AF82"
         points="0,31.9,7.79153,24.1368,7.79153,6.97162,0,0"
         id="polygon98" />
      <polygon
         fill="#80795B"
         points="24.2079,7.76321,7.90264,7.76321,0,0,31.93,0"
         id="polygon100" />
      <polygon
         fill="#5E5B43"
         points="24.2079,24.1368,24.2079,7.76321,31.93,0,31.93,31.9"
         id="polygon102" />
      <polygon
         fill="#9A916C"
         points="0,31.9,7.87486,24.1368,24.2079,24.1368,31.93,31.9"
         id="polygon104" />
    </g>
    <g
       transform="translate(505.9778,34.055521)"
       id="gpin8">
      <rect
         style="fill:#8d8c8c"
         width="31.93"
         x="0"
         y="0"
         height="31.9"
         id="connector8pin" />
      <rect
         style="fill:#8c8663"
         width="16.444201"
         x="7.7915301"
         y="7.7354398"
         height="16.415199"
         id="rect83-2-8" />
      <polygon
         style="fill:#b8af82"
         points="0,31.9 7.79153,24.1368 7.79153,6.97162 0,0 "
         id="polygon85-0-6" />
      <polygon
         style="fill:#80795b"
         points="24.2079,7.76321 7.90264,7.76321 0,0 31.93,0 "
         id="polygon87-7-0" />
      <polygon
         style="fill:#5e5b43"
         points="24.2079,24.1368 24.2079,7.76321 31.93,0 31.93,31.9 "
         id="polygon89-1-7" />
      <polygon
         style="fill:#9a916c"
         points="0,31.9 7.87486,24.1368 24.2079,24.1368 31.93,31.9 "
         id="polygon91-6-3" />
    </g>
  </g>
</svg>
