<?xml version="1.0" encoding="UTF-8" standalone="no"?>
<!-- Generator: Adobe Illustrator 15.1.0, SVG Export Plug-In . SVG Version: 6.00 Build 0)  -->

<svg
   xmlns:dc="http://purl.org/dc/elements/1.1/"
   xmlns:cc="http://creativecommons.org/ns#"
   xmlns:rdf="http://www.w3.org/1999/02/22-rdf-syntax-ns#"
   xmlns:svg="http://www.w3.org/2000/svg"
   xmlns="http://www.w3.org/2000/svg"
   xmlns:sodipodi="http://sodipodi.sourceforge.net/DTD/sodipodi-0.dtd"
   xmlns:inkscape="http://www.inkscape.org/namespaces/inkscape"
   version="1.1"
   id="Ebene_1"
   x="0px"
   y="0px"
   width="39.16"
   height="52.279999"
   viewBox="0 0 39.16 52.28"
   enable-background="new 0 0 39.16 45.28"
   xml:space="preserve"
   inkscape:version="0.91 r13725"
   sodipodi:docname="icon.svg"><metadata
     id="metadata49"><rdf:RDF><cc:Work
         rdf:about=""><dc:format>image/svg+xml</dc:format><dc:type
           rdf:resource="http://purl.org/dc/dcmitype/StillImage" /><dc:title /></cc:Work></rdf:RDF></metadata><defs
     id="defs47" /><sodipodi:namedview
     pagecolor="#ffffff"
     bordercolor="#666666"
     borderopacity="1"
     objecttolerance="10"
     gridtolerance="10"
     guidetolerance="10"
     inkscape:pageopacity="0"
     inkscape:pageshadow="2"
     inkscape:window-width="1920"
     inkscape:window-height="1028"
     id="namedview45"
     showgrid="false"
     inkscape:zoom="10.424029"
     inkscape:cx="41.92001"
     inkscape:cy="17.462201"
     inkscape:window-x="-8"
     inkscape:window-y="-8"
     inkscape:window-maximized="1"
     inkscape:current-layer="Ebene_1" /><path
     style="fill:#4d4d4d"
     inkscape:connector-curvature="0"
     id="path5"
     d="m 0.852,3.5825088 0,46.6294902 1.599,0 0,1.707 16.733,0 0.116,-1.096 0.526,0 0.116,1.096 16.754,0 0,-1.707 1.598,0 0,-46.6294902 z M 13.28,39.679508 c -0.056,0.307 -0.396,0.555 -0.795,0.555 l -4.451,0 c -0.397,0 -0.76,-0.254 -0.799,-0.555 l -2.806,-20.685 c -0.051,-0.305 0.256,-0.557 0.646,-0.557 l 0.655,0 c 0.396,0 0.757,0.254 0.8,0.557 l 2.114,17.384 c 0.033,0.31 0.373,0.558 0.793,0.558 l 1.652,0 c 0.383,0 0.76,-0.252 0.797,-0.558 l 2.104,-17.385 c 0.047,-0.303 0.373,-0.555 0.797,-0.555 l 0.646,-0.002 c 0.394,0 0.693,0.254 0.654,0.555 z m 18.634,0 c -0.055,0.307 -0.396,0.555 -0.797,0.555 l -4.449,0 c -0.396,0 -0.76,-0.254 -0.801,-0.555 l -2.807,-20.685 c -0.049,-0.305 0.258,-0.557 0.646,-0.557 l 0.654,0 c 0.396,0 0.756,0.254 0.797,0.557 l 2.118,17.384 c 0.031,0.31 0.371,0.558 0.793,0.558 l 1.65,0 c 0.383,0 0.76,-0.252 0.797,-0.558 l 2.105,-17.385 c 0.049,-0.303 0.373,-0.555 0.795,-0.555 l 0.646,-0.002 c 0.395,0 0.693,0.254 0.654,0.555 z"
     sodipodi:nodetypes="ccccccccccccccssccssccsscccccccssccssccsscccccc" /><rect
     style="fill:#808080"
     id="rect7"
     height="33.438"
     width="32.188"
     y="7.6559992"
     x="3.487" /><rect
     style="fill:#f2f2f2"
     id="rect9"
     height="1.75"
     width="32.188"
     y="48.094002"
     x="3.487" /><path
     style="fill:#b0b0b0"
     inkscape:connector-curvature="0"
     id="path11"
     d="m 36.875,45.214008 1,0 c 0,0.535 0.1,0.885 0.27,0.998 0.066,0.031 0.627,0.107 1.016,0.107 l 0,0.674 0,0.326 0,3.307 0,0.154 0,0.846 c -0.605,0 -1.316,-0.111 -1.563,-0.271 -0.664,-0.445 -0.715,-1.341 -0.721,-1.738 l -0.002,-0.002 0,-4 0.02,0.011 c -0.018,-0.174 -0.02,-0.321 -0.02,-0.412 z" /><path
     style="fill:#8f8f8f"
     inkscape:connector-curvature="0"
     id="path13"
     d="m 38.027,46.073008 c -0.1,-0.172 -0.15,-0.465 -0.15,-0.861 l -1,0 0,4.305 c 0,0.281 0.008,1.035 0.43,1.564 0.125,0.145 0.189,0.313 0.813,0.449 -0.103,-0.176 -0.093,-5.457 -0.093,-5.457 z" /><path
     style="fill:#b0b0b0"
     inkscape:connector-curvature="0"
     id="path15"
     d="m 2.283,45.214008 -1,0 c 0,0.535 -0.101,0.885 -0.271,0.998 -0.065,0.031 -0.627,0.107 -1.012,0.107 l 0,0.674 0,0.326 0,3.307 0,0.154 0,0.846 c 0.604,0 1.318,-0.111 1.56,-0.271 0.665,-0.445 0.719,-1.341 0.723,-1.738 l 10e-4,-0.002 0,-4 -0.02,0.011 c 0.018,-0.174 0.019,-0.321 0.019,-0.412 z" /><path
     style="fill:#8f8f8f"
     inkscape:connector-curvature="0"
     id="path17"
     d="m 1.044,51.526008 c 0.619,-0.135 0.688,-0.309 0.812,-0.451 0.425,-0.521 0.431,-1.275 0.431,-1.559 l 0,-4.305 -1,0 c 0,0.396 -0.058,0.688 -0.149,0.857 -0.005,0.005 0.001,5.286 -0.094,5.458 z" /><path
     style="fill:#b3b3b3"
     inkscape:connector-curvature="0"
     id="path19"
     d="m 0.852,-9.995207e-4 0,38.6129985207 1.599,0 0,1.707 34.25,0 0,-1.707 1.596,0 0,-38.6129985207 -37.445,0 z M 13.28,36.095999 c -0.056,0.306 -0.396,0.554 -0.795,0.554 l -4.451,0 c -0.397,0 -0.76,-0.252 -0.799,-0.554 l -2.806,-20.686 c -0.051,-0.304 0.256,-0.556 0.646,-0.556 l 0.655,0 c 0.396,0 0.757,0.253 0.8,0.556 l 2.114,17.386 c 0.033,0.313 0.373,0.561 0.793,0.561 l 1.652,0 c 0.383,0 0.76,-0.256 0.797,-0.561 l 2.104,-17.385 c 0.047,-0.304 0.373,-0.555 0.797,-0.555 l 0.646,-0.002 c 0.394,0 0.693,0.253 0.654,0.555 l -2.807,20.687 z m 18.634,0 c -0.055,0.306 -0.396,0.554 -0.797,0.554 l -4.449,0 c -0.396,0 -0.76,-0.252 -0.801,-0.554 l -2.807,-20.686 c -0.049,-0.304 0.258,-0.556 0.646,-0.556 l 0.654,0 c 0.396,0 0.756,0.253 0.797,0.556 l 2.117,17.386 c 0.031,0.313 0.371,0.561 0.793,0.561 l 1.65,0 c 0.383,0 0.76,-0.256 0.797,-0.561 l 2.105,-17.385 c 0.049,-0.304 0.373,-0.555 0.795,-0.555 l 0.646,-0.002 c 0.395,0 0.693,0.253 0.654,0.555 l -2.8,20.687 z" /><polygon
     style="fill:none"
     id="polygon21"
     points="11.995,31.708 8.538,31.708 8.7,33.339 11.81,33.339 "
     transform="translate(0,7.0000096)" /><polygon
     style="fill:#939393"
     id="polygon23"
     points="8.7,33.339 8.538,31.708 11.995,31.708 11.81,33.339 "
     transform="translate(0,7.0000096)" /><polygon
     style="fill:#666666"
     id="polygon25"
     points="8.442,31.024 8.538,31.708 11.995,31.708 12.079,31.024 "
     transform="translate(0,7.0000096)" /><polygon
     style="fill:none"
     id="polygon27"
     points="30.625,31.708 27.17,31.708 27.332,33.339 30.443,33.339 "
     transform="translate(0,7.0000096)" /><polygon
     style="fill:#939393"
     id="polygon29"
     points="27.332,33.339 27.17,31.708 30.625,31.708 30.443,33.339 "
     transform="translate(0,7.0000096)" /><polygon
     style="fill:#666666"
     id="polygon31"
     points="27.074,31.024 27.17,31.708 30.625,31.708 30.709,31.024 "
     transform="translate(0,7.0000096)" /><line
     style="fill:none;stroke:#ffffff;stroke-width:0.8064;stroke-linecap:round;stroke-opacity:0.23999999"
     id="line33"
     y2="37.905056"
     x2="1.42"
     y1="1.0640681"
     x1="1.42" /><line
     style="fill:none;stroke:#ffffff;stroke-width:0.8064;stroke-linecap:round;stroke-opacity:0.23999999"
     id="line35"
     y2="38.055058"
     x2="37.726002"
     y1="1.0640665"
     x1="37.726002" /><line
     style="fill:none;stroke:#000000;stroke-width:0.4032;stroke-linecap:round;stroke-opacity:0.15"
     id="line37"
     y2="46.188"
     x2="2.668"
     y1="46.188"
     x1="36.478001" /><rect
     style="fill:#b0b0b0"
     id="rect39"
     height="0.64999998"
     width="34.25"
     y="46.668999"
     x="2.4489999" /><polygon
     style="fill:#b0b0b0"
     id="polygon41"
     points="2.449,45.28 19.116,45.28 19.184,44.626 2.449,44.626 "
     transform="translate(0,7.0000096)" /><polygon
     style="fill:#b0b0b0"
     id="polygon43"
     points="36.699,45.28 36.699,44.626 19.945,44.626 20.013,45.28 "
     transform="translate(0,7.0000096)" /><rect
     style="fill:#f2f2f2"
     id="rect9-4"
     height="1.75"
     width="32.188"
     y="42.606529"
     x="3.4427807" /><path
     style="fill:#b0b0b0"
     inkscape:connector-curvature="0"
     id="path11-8"
     d="m 36.830781,39.726535 1,0 c 0,0.535 0.1,0.885 0.27,0.998 0.066,0.031 0.627,0.107 1.016,0.107 l 0,0.674 0,0.326 0,3.307 0,0.154 0,0.846 c -0.605,0 -1.316,-0.111 -1.563,-0.271 -0.664,-0.445 -0.715,-1.341 -0.721,-1.738 l -0.002,-0.002 0,-4 0.02,0.011 c -0.018,-0.174 -0.02,-0.321 -0.02,-0.412 z" /><path
     style="fill:#8f8f8f"
     inkscape:connector-curvature="0"
     id="path13-7"
     d="m 37.982781,40.585535 c -0.1,-0.172 -0.15,-0.465 -0.15,-0.861 l -1,0 0,4.305 c 0,0.281 0.008,1.035 0.43,1.564 0.125,0.145 0.189,0.313 0.813,0.449 -0.103,-0.176 -0.093,-5.457 -0.093,-5.457 z" /><path
     style="fill:#b0b0b0"
     inkscape:connector-curvature="0"
     id="path15-4"
     d="m 2.2387809,39.726535 -1,0 c 0,0.535 -0.101,0.885 -0.271,0.998 -0.065,0.031 -0.627,0.107 -1.012,0.107 l 0,0.674 0,0.326 0,3.307 0,0.154 0,0.846 c 0.604,0 1.318,-0.111 1.56,-0.271 0.665,-0.445 0.719,-1.341 0.723,-1.738 l 10e-4,-0.002 0,-4 -0.02,0.011 c 0.018,-0.174 0.019,-0.321 0.019,-0.412 z" /><path
     style="fill:#8f8f8f"
     inkscape:connector-curvature="0"
     id="path17-1"
     d="m 0.9997809,46.038535 c 0.619,-0.135 0.688,-0.309 0.812,-0.451 0.425,-0.521 0.431,-1.275 0.431,-1.559 l 0,-4.305 -1,0 c 0,0.396 -0.058,0.688 -0.149,0.857 -0.005,0.005 10e-4,5.286 -0.094,5.458 z" /><line
     style="fill:none;stroke:#000000;stroke-width:0.4032;stroke-linecap:round;stroke-opacity:0.15"
     id="line37-8"
     y2="40.700527"
     x2="2.6237805"
     y1="40.700527"
     x1="36.433781" /><rect
     style="fill:#b0b0b0"
     id="rect39-2"
     height="0.64999998"
     width="34.25"
     y="41.181526"
     x="2.4047806" /><polygon
     style="fill:#b0b0b0"
     id="polygon41-5"
     points="19.184,44.626 2.449,44.626 2.449,45.28 19.116,45.28 "
     transform="translate(-0.0442191,1.512537)" /><polygon
     style="fill:#b0b0b0"
     id="polygon43-9"
     points="19.945,44.626 20.013,45.28 36.699,45.28 36.699,44.626 "
     transform="translate(-0.0442191,1.512537)" /></svg>