<?xml version="1.0" encoding="UTF-8" standalone="no"?>
<svg
   xmlns:fz="http://fritzing.org/kicadmetadata/1.0/"
   xmlns:dc="http://purl.org/dc/elements/1.1/"
   xmlns:cc="http://creativecommons.org/ns#"
   xmlns:rdf="http://www.w3.org/1999/02/22-rdf-syntax-ns#"
   xmlns:svg="http://www.w3.org/2000/svg"
   xmlns="http://www.w3.org/2000/svg"
   xmlns:sodipodi="http://sodipodi.sourceforge.net/DTD/sodipodi-0.dtd"
   xmlns:inkscape="http://www.inkscape.org/namespaces/inkscape"
   height="38.976376"
   version="1.2"
   viewBox="0 0 4724.4091 4330.7085"
   width="42.519684"
   x="0in"
   y="0in"
   id="svg2"
   inkscape:version="0.48.4 r9939"
   sodipodi:docname="jack_suyin_pcb.svg">
  <defs
     id="defs75" />
  <sodipodi:namedview
     pagecolor="#ffffff"
     bordercolor="#666666"
     borderopacity="1"
     objecttolerance="10"
     gridtolerance="10"
     guidetolerance="10"
     inkscape:pageopacity="0"
     inkscape:pageshadow="2"
     inkscape:window-width="1920"
     inkscape:window-height="1028"
     id="namedview73"
     showgrid="false"
     showguides="true"
     inkscape:guide-bbox="true"
     units="mm"
     inkscape:document-units="mm"
     inkscape:zoom="10.937319"
     inkscape:cx="9.3456364"
     inkscape:cy="16.172925"
     inkscape:window-x="-8"
     inkscape:window-y="-8"
     inkscape:window-maximized="1"
     inkscape:current-layer="copper1" />
  <title
     id="title4">sparkfun_audio_jack.mod</title>
  <desc
     id="desc6">Kicad module '&gt;NAME' from file 'sparkfun_audio_jack.mod' converted by Fritzing</desc>
  <metadata
     id="metadata8">
    <rdf:RDF>
      <rdf:Description
         rdf:about="">
        <fz:attr
           name="kicad filename">sparkfun_audio_jack.mod</fz:attr>
        <fz:attr
           name="kicad module">&gt;NAME</fz:attr>
        <fz:attr
           name="fritzing version">0.3.20b.04.19.4124</fz:attr>
        <fz:attr
           name="conversion date">26/04/2010 17:38:24</fz:attr>
      </rdf:Description>
      <cc:Work
         rdf:about="">
        <dc:format>image/svg+xml</dc:format>
        <dc:type
           rdf:resource="http://purl.org/dc/dcmitype/StillImage" />
        <dc:title>sparkfun_audio_jack.mod</dc:title>
      </cc:Work>
    </rdf:RDF>
  </metadata>
  <g
     id="copper0"
     inkscape:label="#copper0">
    <g
       id="copper1">
      <circle
         cx="2559"
         cy="2397.5"
         id="connector0pin"
         r="351.75"
         sodipodi:cx="2559"
         sodipodi:cy="2397.5"
         sodipodi:rx="351.75"
         sodipodi:ry="351.75"
         style="fill:none;stroke:#ff9400;stroke-width:233.52835083;stroke-miterlimit:4;stroke-dasharray:none"
         d="m 2910.75,2397.5 c 0,194.2662 -157.4838,351.75 -351.75,351.75 -194.2662,0 -351.75,-157.4838 -351.75,-351.75 0,-194.2662 157.4838,-351.75 351.75,-351.75 194.2662,0 351.75,157.4838 351.75,351.75 z"
         transform="matrix(0.85754431,0,0,-0.85754431,-1407.2513,4240.411)" />
      <circle
         id="nonconn0"
         cx="2559"
         cy="429.5"
         r="220"
         sodipodi:cx="2559"
         sodipodi:cy="429.5"
         sodipodi:rx="220"
         sodipodi:ry="220"
         style="fill:#000000;stroke:#000000;stroke-width:0"
         d="m 2779,429.5 c 0,121.50264 -98.4974,220 -220,220 -121.5026,0 -220,-98.49736 -220,-220 0,-121.50264 98.4974,-220 220,-220 121.5026,0 220,98.49736 220,220 z"
         transform="matrix(1,0,0,-1,590.52746,1432.614)" />
      <circle
         id="nonconn1"
         cx="1575"
         cy="429.5"
         r="220"
         sodipodi:cx="1575"
         sodipodi:cy="429.5"
         sodipodi:rx="220"
         sodipodi:ry="220"
         style="fill:#000000;stroke:#000000;stroke-width:0"
         d="m 1795,429.5 c 0,121.50264 -98.4974,220 -220,220 -121.5026,0 -220,-98.49736 -220,-220 0,-121.50264 98.4974,-220 220,-220 121.5026,0 220,98.49736 220,220 z"
         transform="matrix(1,0,0,-1,-393.97652,3991.6691)" />
      <circle
         id="nonconn2"
         cx="1575"
         cy="4365.5"
         r="220"
         sodipodi:cx="1575"
         sodipodi:cy="4365.5"
         sodipodi:rx="220"
         sodipodi:ry="220"
         style="fill:#000000;stroke:#000000;stroke-width:0"
         d="m 1795,4365.5 c 0,121.5026 -98.4974,220 -220,220 -121.5026,0 -220,-98.4974 -220,-220 0,-121.5026 98.4974,-220 220,-220 121.5026,0 220,98.4974 220,220 z"
         transform="matrix(1,0,0,-1,-393.97652,5171.7636)" />
      <circle
         id="nonconn3"
         cx="2559"
         cy="4365.5"
         r="220"
         sodipodi:cx="2559"
         sodipodi:cy="4365.5"
         sodipodi:rx="220"
         sodipodi:ry="220"
         style="fill:#000000;stroke:#000000;stroke-width:0"
         d="m 2779,4365.5 c 0,121.5026 -98.4974,220 -220,220 -121.5026,0 -220,-98.4974 -220,-220 0,-121.5026 98.4974,-220 220,-220 121.5026,0 220,98.4974 220,220 z"
         transform="matrix(1,0,0,-1,1394.0708,4778.0628)" />
      <circle
         id="nonconn4"
         cx="4527"
         cy="2397.5"
         r="220"
         sodipodi:cx="4527"
         sodipodi:cy="2397.5"
         sodipodi:rx="220"
         sodipodi:ry="220"
         style="fill:#000000;stroke:#000000;stroke-width:0"
         d="m 4747,2397.5 c 0,121.5026 -98.4974,220 -220,220 -121.5026,0 -220,-98.4974 -220,-220 0,-121.5026 98.4974,-220 220,-220 121.5026,0 220,98.4974 220,220 z"
         transform="matrix(1,0,0,-1,-573.92921,5172.2675)" />
      <circle
         cx="2559"
         cy="2397.5"
         id="connector1pin"
         r="351.75"
         sodipodi:cx="2559"
         sodipodi:cy="2397.5"
         sodipodi:rx="351.75"
         sodipodi:ry="351.75"
         style="fill:none;stroke:#ff9400;stroke-width:233.52835083;stroke-miterlimit:4;stroke-dasharray:none"
         d="m 2910.75,2397.5 c 0,194.2662 -157.4838,351.75 -351.75,351.75 -194.2662,0 -351.75,-157.4838 -351.75,-351.75 0,-194.2662 157.4838,-351.75 351.75,-351.75 194.2662,0 351.75,157.4838 351.75,351.75 z"
         transform="matrix(0.85754446,0,0,-0.85754446,1750.6225,3649.4665)" />
      <circle
         cx="2559"
         cy="2397.5"
         id="connector0pin-7"
         r="351.75"
         sodipodi:cx="2559"
         sodipodi:cy="2397.5"
         sodipodi:rx="351.75"
         sodipodi:ry="351.75"
         style="fill:none;stroke:#ff9400;stroke-width:233.52835083;stroke-miterlimit:4;stroke-dasharray:none"
         d="m 2910.75,2397.5 c 0,194.2662 -157.4838,351.75 -351.75,351.75 -194.2662,0 -351.75,-157.4838 -351.75,-351.75 0,-194.2662 157.4838,-351.75 351.75,-351.75 194.2662,0 351.75,157.4838 351.75,351.75 z"
         transform="matrix(0.85754446,0,0,-0.85754446,569.52008,5614.4272)" />
    </g>
  </g>
</svg>
