<?xml version="1.0" encoding="UTF-8" standalone="no"?>
<!-- Generator: Adobe Illustrator 14.0.0, SVG Export Plug-In . SVG Version: 6.00 Build 43363)  -->

<svg
   xmlns:dc="http://purl.org/dc/elements/1.1/"
   xmlns:cc="http://creativecommons.org/ns#"
   xmlns:rdf="http://www.w3.org/1999/02/22-rdf-syntax-ns#"
   xmlns:svg="http://www.w3.org/2000/svg"
   xmlns="http://www.w3.org/2000/svg"
   xmlns:sodipodi="http://sodipodi.sourceforge.net/DTD/sodipodi-0.dtd"
   xmlns:inkscape="http://www.inkscape.org/namespaces/inkscape"
   width="0.472444in"
   xml:space="preserve"
   x="0px"
   version="1.2"
   y="0px"
   height="0.48675in"
   viewBox="0 0 34.016 35.046"
   id="svg2"
   inkscape:version="0.48.4 r9939"
   sodipodi:docname="stereo-jack-3_5mm.svg"><metadata
   id="metadata122"><rdf:RDF><cc:Work
       rdf:about=""><dc:format>image/svg+xml</dc:format><dc:type
         rdf:resource="http://purl.org/dc/dcmitype/StillImage" /><dc:title></dc:title></cc:Work></rdf:RDF></metadata><defs
   id="defs120" /><sodipodi:namedview
   pagecolor="#ffffff"
   bordercolor="#666666"
   borderopacity="1"
   objecttolerance="10"
   gridtolerance="10"
   guidetolerance="10"
   inkscape:pageopacity="0"
   inkscape:pageshadow="2"
   inkscape:window-width="1051"
   inkscape:window-height="859"
   id="namedview118"
   showgrid="false"
   inkscape:zoom="10.774411"
   inkscape:cx="25.384947"
   inkscape:cy="23.015075"
   inkscape:window-x="153"
   inkscape:window-y="129"
   inkscape:window-maximized="0"
   inkscape:current-layer="breadboard" />
 <g
   id="breadboard">
 <rect
   width="3.125"
   x="15.416"
   y="18.546"
   fill="none"
   height="2.834"
   id="connector0pin" />
 <rect
   width="2.834"
   x="15.562"
   y="19.254"
   fill="none"
   height="1.418"
   id="connector0terminal" />
 <rect
   width="2.835"
   x="1.193"
   y="4.014"
   fill="none"
   height="3.125"
   id="connector1pin" />
 <rect
   width="1.418"
   x="1.901"
   y="4.159"
   fill="none"
   height="2.834"
   id="connector1terminal" />
 <rect
   width="2.835"
   x="8.393"
   y="4.014"
   fill="none"
   height="3.125"
   id="connector2pin" />
 <rect
   width="1.418"
   x="9.102"
   y="4.159"
   fill="none"
   height="2.834"
   id="connector2terminal" />
 <rect
   width="2.834"
   x="22.793"
   y="4.014"
   fill="none"
   height="3.125"
   id="connector3pin" />
 <rect
   width="1.418"
   x="23.501"
   y="4.159"
   fill="none"
   height="2.834"
   id="connector3terminal" />
 <rect
   width="2.834"
   x="29.993"
   y="4.014"
   fill="none"
   height="3.125"
   id="connector4pin" />
 <rect
   width="1.418"
   x="30.701"
   y="4.159"
   fill="none"
   height="2.834"
   id="connector4terminal" />
  <polygon
   fill="#333333"
   points="34.016,0 0,0 0,28.347 4.252,28.347 4.252,31.182 29.764,31.182 29.764,28.347 34.016,28.347 "
   id="polygon14" />
  <rect
   width="0.992"
   x="33.023"
   y="0.958"
   height="2.836"
   id="rect16" />
  <rect
   width="0.992"
   y="0.958"
   height="2.836"
   id="rect18" />
  <rect
   width="1.418"
   x="1.901"
   y="4.158"
   height="2.836"
   id="rect20" />
  <rect
   width="0.777"
   x="2.222"
   y="4.771"
   fill="#CCCCCC"
   height="1.611"
   id="rect22" />
  
  
  <rect
   width="1.418"
   x="23.501"
   y="4.159"
   height="2.834"
   id="rect28" />
  
  <rect
   width="0.777"
   x="23.821"
   y="4.771"
   fill="#CCCCCC"
   height="1.611"
   id="rect32" />
  
  <rect
   width="15.817"
   x="9.102"
   y="10.324"
   fill="#2B2B2B"
   height="8.204"
   id="rect36" />
  <g
   id="g38">
   <rect
   width="15.817"
   x="9.102"
   y="21.542"
   fill="#2B2B2B"
   height="6.805"
   id="rect40" />
   <path
   fill="#2B2B2B"
   d="M25.072,28.5H8.948v-7.111h16.124V28.5L25.072,28.5z M9.255,28.193h15.511v-6.498H9.255V28.193L9.255,28.193z"
   id="path42" />
  </g>
  <polyline
   fill="none"
   points="9.102,18.528 9.102,10.324 24.919,10.324 "
   stroke="#1A1A1A"
   stroke-linecap="square"
   stroke-width="0.2473"
   id="polyline44" />
  <polyline
   fill="none"
   points="24.92,10.323 24.92,18.527 9.103,18.527 "
   stroke="#262626"
   stroke-linecap="square"
   stroke-width="0.2473"
   id="polyline46" />
  <g
   id="g48">
   <line
   fill="#525252"
   y1="27.543"
   x1="14.457"
   y2="27.546"
   x2="14.455"
   id="line50" />
   <line
   fill="#525252"
   y1="27.546"
   x1="19.564"
   y2="27.543"
   x2="19.562"
   id="line52" />
   <rect
   width="4.996"
   x="19.564"
   y="27.543"
   fill="#CCCCCC"
   height="0.003"
   id="rect54" />
   <rect
   width="4.997"
   x="9.46"
   y="27.543"
   fill="#CCCCCC"
   height="0.003"
   id="rect56" />
  </g>
  <polygon
   fill="#2B2B2B"
   points="21.148,31.182 21.148,28.5 12.874,28.5 12.874,31.182 10.975,31.182 10.975,33.183 23.048,33.183 23.048,31.182 "
   id="polygon58" />
  <polygon
   fill="#292929"
   points="13.146,28.5 12.874,28.5 12.874,31.182 11.405,31.182 11.405,33.183 13.146,33.183 "
   id="polygon60" />
  <polygon
   fill="#292929"
   points="20.573,28.5 21.182,28.5 21.182,31.182 22.65,31.182 22.65,33.183 20.573,33.183 "
   id="polygon62" />
  <rect
   width="7.728"
   x="13.146"
   y="26.619"
   fill="#CCCCCC"
   height="1.881"
   id="rect64" />
  <rect
   width="3.21"
   x="15.972"
   y="26.619"
   fill="#D6D6D6"
   height="1.881"
   id="rect66" />
  <g
   id="g68">
   <path
   fill="#CCCCCC"
   d="M20.155,28.019c-0.325-0.031-0.62-0.28-0.691-0.579l-0.34-1.42c-0.067-0.283-0.359-0.514-0.65-0.514h-2.926c-0.291,0-0.583,0.23-0.65,0.514l-0.342,1.42c-0.071,0.299-0.366,0.548-0.687,0.579H9.46L9.41,21.92l15.15-0.05l0.05,6.148H20.155z"
   id="path70" />
   <path
   fill="#3D3D3D"
   d="M24.561,21.92v6.049h-4.405c-0.293-0.028-0.575-0.256-0.643-0.541l-0.34-1.42c-0.072-0.304-0.387-0.552-0.699-0.552h-2.926c-0.312,0-0.627,0.248-0.699,0.552l-0.342,1.42c-0.067,0.285-0.35,0.513-0.643,0.541H9.46V21.92H24.561 M24.66,21.82h-0.1H9.46h-0.1v0.1v6.049v0.1h0.1h4.404c0.351-0.033,0.664-0.299,0.74-0.617l0.342-1.42c0.061-0.258,0.337-0.476,0.602-0.476h2.926c0.265,0,0.541,0.218,0.602,0.476l0.34,1.42c0.076,0.318,0.39,0.584,0.73,0.617h4.415h0.1v-0.1V21.92V21.82L24.66,21.82z"
   id="path72" />
  </g>
  <polygon
   fill="#D9D9D9"
   points="14.755,26.396 9.46,26.396 9.46,27.12 14.581,27.12 "
   id="polygon74" />
  <polygon
   fill="#D9D9D9"
   points="19.439,27.12 24.561,27.12 24.561,26.396 19.266,26.396 "
   id="polygon76" />
  <path
   fill="#878787"
   d="M19.513,27.428c0.01,0.041,0.032,0.077,0.05,0.115h4.998V27.12h-5.121L19.513,27.428z"
   id="path78" />
  <path
   fill="#878787"
   d="M14.507,27.428l0.074-0.308H9.46v0.423h4.997C14.475,27.505,14.497,27.469,14.507,27.428z"
   id="path80" />
  <path
   fill="#525252"
   d="M20.155,27.969h4.405v-0.423h-4.996C19.672,27.772,19.905,27.944,20.155,27.969z"
   id="path82" />
  <path
   fill="#525252"
   d="M14.455,27.546H9.46v0.423h4.404C14.114,27.944,14.348,27.772,14.455,27.546z"
   id="path84" />
  <rect
   width="15.101"
   x="9.46"
   y="21.92"
   fill="#8F8F8F"
   height="1.846"
   id="rect86" />
  <g
   id="g88">
   <polygon
   fill="#DEDEDE"
   points="24.561,23.979 9.46,23.979 9.46,23.553 24.561,23.553 24.561,23.979 "
   id="polygon90" />
  </g>
  <rect
   width="1.761"
   x="16.496"
   y="26.619"
   fill="#DEDEDE"
   height="1.881"
   id="rect92" />
  <rect
   width="3.21"
   x="15.972"
   y="28.517"
   fill="#333333"
   height="4.648"
   id="rect94" />
  <rect
   width="1.761"
   x="16.496"
   y="28.517"
   fill="#383838"
   height="4.648"
   id="rect96" />
  <rect
   width="0.431"
   x="10.975"
   y="31.182"
   fill="#212121"
   height="2.001"
   id="rect98" />
  <rect
   width="0.397"
   x="22.65"
   y="31.182"
   fill="#212121"
   height="2.001"
   id="rect100" />
  <rect
   width="12.071"
   x="10.975"
   y="33.165"
   fill="#A1A1A1"
   height="1.881"
   id="rect102" />
  <rect
   width="7.427"
   x="13.146"
   y="33.165"
   fill="#ABABAB"
   height="1.881"
   id="rect104" />
  <rect
   width="3.21"
   x="15.972"
   y="33.165"
   fill="#C7C7C7"
   height="1.881"
   id="rect106" />
  <rect
   width="1.761"
   x="16.496"
   y="33.165"
   fill="#E6E6E6"
   height="1.881"
   id="rect108" />
  <rect
   width="0.397"
   x="22.65"
   y="33.165"
   fill="#737373"
   height="1.881"
   id="rect110" />
  <rect
   width="0.397"
   x="10.991"
   y="33.165"
   fill="#737373"
   height="1.881"
   id="rect112" />
  <rect
   width="2.834"
   x="15.562"
   y="19.254"
   height="1.418"
   id="rect114" />
  <rect
   width="1.611"
   x="16.173"
   y="19.574"
   fill="#CCCCCC"
   height="0.777"
   id="rect116" />
 </g>
</svg>