<?xml version="1.0" encoding="UTF-8" standalone="no"?>
<svg
   xmlns:fz="http://fritzing.org/kicadmetadata/1.0/"
   xmlns:dc="http://purl.org/dc/elements/1.1/"
   xmlns:cc="http://creativecommons.org/ns#"
   xmlns:rdf="http://www.w3.org/1999/02/22-rdf-syntax-ns#"
   xmlns:svg="http://www.w3.org/2000/svg"
   xmlns="http://www.w3.org/2000/svg"
   xmlns:sodipodi="http://sodipodi.sourceforge.net/DTD/sodipodi-0.dtd"
   xmlns:inkscape="http://www.inkscape.org/namespaces/inkscape"
   height="38.976376"
   version="1.2"
   viewBox="0 0 4724.4091 4330.7085"
   width="42.519684"
   x="0in"
   y="0in"
   id="svg2"
   inkscape:version="0.48.4 r9939"
   sodipodi:docname="jack_suyin_pcb.svg">
  <defs
     id="defs75" />
  <sodipodi:namedview
     pagecolor="#ffffff"
     bordercolor="#666666"
     borderopacity="1"
     objecttolerance="10"
     gridtolerance="10"
     guidetolerance="10"
     inkscape:pageopacity="0"
     inkscape:pageshadow="2"
     inkscape:window-width="1920"
     inkscape:window-height="1028"
     id="namedview73"
     showgrid="false"
     showguides="true"
     inkscape:guide-bbox="true"
     units="mm"
     inkscape:document-units="mm"
     inkscape:zoom="15.467705"
     inkscape:cx="27.213553"
     inkscape:cy="22.102798"
     inkscape:window-x="-8"
     inkscape:window-y="-8"
     inkscape:window-maximized="1"
     inkscape:current-layer="copper1"
     inkscape:snap-object-midpoints="true"
     inkscape:snap-center="false">
    <sodipodi:guide
       orientation="1,0"
       position="28.346457,30.11811"
       id="guide3659" />
    <sodipodi:guide
       orientation="0,1"
       position="28.346457,30.11811"
       id="guide3661" />
    <sodipodi:guide
       orientation="0,1"
       position="35.433071,35.433071"
       id="guide3663" />
    <sodipodi:guide
       orientation="1,0"
       position="35.433071,35.433071"
       id="guide3665" />
    <sodipodi:guide
       orientation="0,1"
       position="35.433071,14.173228"
       id="guide3669" />
    <sodipodi:guide
       orientation="1,0"
       position="10.629921,7.0866142"
       id="guide3703" />
    <sodipodi:guide
       orientation="0,1"
       position="10.629921,7.0866142"
       id="guide3705" />
    <sodipodi:guide
       orientation="1,0"
       position="24.80315,5.3149606"
       id="guide3707" />
    <sodipodi:guide
       orientation="0,1"
       position="10.629921,31.889764"
       id="guide3709" />
    <sodipodi:guide
       orientation="0,1"
       position="35.433071,24.80315"
       id="guide3711" />
    <sodipodi:guide
       orientation="0,1"
       position="7.0866142,19.488189"
       id="guide3713" />
    <sodipodi:guide
       orientation="1,0"
       position="7.0866142,19.488189"
       id="guide3719" />
    <sodipodi:guide
       orientation="0,1"
       position="24.80315,5.3149606"
       id="guide3721" />
  </sodipodi:namedview>
  <title
     id="title4">sparkfun_audio_jack.mod</title>
  <desc
     id="desc6">Kicad module '&gt;NAME' from file 'sparkfun_audio_jack.mod' converted by Fritzing</desc>
  <metadata
     id="metadata8">
    <rdf:RDF>
      <rdf:Description
         rdf:about="">
        <fz:attr
           name="kicad filename">sparkfun_audio_jack.mod</fz:attr>
        <fz:attr
           name="kicad module">&gt;NAME</fz:attr>
        <fz:attr
           name="fritzing version">0.3.20b.04.19.4124</fz:attr>
        <fz:attr
           name="conversion date">26/04/2010 17:38:24</fz:attr>
      </rdf:Description>
      <cc:Work
         rdf:about="">
        <dc:format>image/svg+xml</dc:format>
        <dc:type
           rdf:resource="http://purl.org/dc/dcmitype/StillImage" />
        <dc:title>sparkfun_audio_jack.mod</dc:title>
      </cc:Work>
    </rdf:RDF>
  </metadata>
  <g
     id="copper0"
     inkscape:label="#copper0">
    <g
       id="copper1">
      <circle
         cx="2559"
         cy="2397.5"
         id="connector0pin"
         r="351.75"
         sodipodi:cx="2559"
         sodipodi:cy="2397.5"
         sodipodi:rx="351.75"
         sodipodi:ry="351.75"
         style="fill:none;stroke:#ff9400;stroke-width:233.52835083;stroke-miterlimit:4;stroke-dasharray:none"
         d="m 2910.75,2397.5 c 0,194.2662 -157.4838,351.75 -351.75,351.75 -194.2662,0 -351.75,-157.4838 -351.75,-351.75 0,-194.2662 157.4838,-351.75 351.75,-351.75 194.2662,0 351.75,157.4838 351.75,351.75 z"
         transform="matrix(0.85754431,0,0,-0.85754431,-1407.0545,4221.3166)" />
      <circle
         id="nonconn1"
         cx="1575"
         cy="429.5"
         r="220"
         sodipodi:cx="1575"
         sodipodi:cy="429.5"
         sodipodi:rx="220"
         sodipodi:ry="220"
         style="fill:#000000;stroke:#000000;stroke-width:0"
         d="m 1795,429.5 c 0,121.50264 -98.4974,220 -220,220 -121.5026,0 -220,-98.49736 -220,-220 0,-121.50264 98.4974,-220 220,-220 121.5026,0 220,98.49736 220,220 z"
         transform="matrix(1,0,0,-1,-393.8978,3972.8069)" />
      <circle
         id="nonconn2"
         cx="1575"
         cy="4365.5"
         r="220"
         sodipodi:cx="1575"
         sodipodi:cy="4365.5"
         sodipodi:rx="220"
         sodipodi:ry="220"
         style="fill:#000000;stroke:#000000;stroke-width:0"
         d="m 1795,4365.5 c 0,121.5026 -98.4974,220 -220,220 -121.5026,0 -220,-98.4974 -220,-220 0,-121.5026 98.4974,-220 220,-220 121.5026,0 220,98.4974 220,220 z"
         transform="matrix(1,0,0,-1,-393.8978,5152.9013)" />
      <circle
         cx="2559"
         cy="2397.5"
         id="connector1pin"
         r="351.75"
         sodipodi:cx="2559"
         sodipodi:cy="2397.5"
         sodipodi:rx="351.75"
         sodipodi:ry="351.75"
         style="fill:none;stroke:#ff9400;stroke-width:233.52835083;stroke-miterlimit:4;stroke-dasharray:none"
         d="m 2910.75,2397.5 c 0,194.2662 -157.4838,351.75 -351.75,351.75 -194.2662,0 -351.75,-157.4838 -351.75,-351.75 0,-194.2662 157.4838,-351.75 351.75,-351.75 194.2662,0 351.75,157.4838 351.75,351.75 z"
         transform="matrix(0.85754446,0,0,-0.85754446,1742.5515,3630.7657)" />
      <circle
         cx="2559"
         cy="2397.5"
         id="connector2pin"
         r="351.75"
         sodipodi:cx="2559"
         sodipodi:cy="2397.5"
         sodipodi:rx="351.75"
         sodipodi:ry="351.75"
         style="fill:none;stroke:#ff9400;stroke-width:233.52835083;stroke-miterlimit:4;stroke-dasharray:none"
         d="m 2910.75,2397.5 c 0,194.2662 -157.4838,351.75 -351.75,351.75 -194.2662,0 -351.75,-157.4838 -351.75,-351.75 0,-194.2662 157.4838,-351.75 351.75,-351.75 194.2662,0 351.75,157.4838 351.75,351.75 z"
         transform="matrix(0.85754446,0,0,-0.85754446,561.44918,5796.1202)" />
      <circle
         cx="2559"
         cy="2397.5"
         id="nonconn4"
         r="351.75"
         sodipodi:cx="2559"
         sodipodi:cy="2397.5"
         sodipodi:rx="351.75"
         sodipodi:ry="351.75"
         style="fill:none;stroke:#ff9400;stroke-width:233.52835083;stroke-miterlimit:4;stroke-dasharray:none"
         d="m 2910.75,2397.5 c 0,194.2662 -157.4838,351.75 -351.75,351.75 -194.2662,0 -351.75,-157.4838 -351.75,-351.75 0,-194.2662 157.4838,-351.75 351.75,-351.75 194.2662,0 351.75,157.4838 351.75,351.75 z"
         transform="matrix(0.85754446,0,0,-0.85754446,955.14997,3040.2146)" />
      <circle
         cx="2559"
         cy="2397.5"
         id="nonconn3"
         r="351.75"
         sodipodi:cx="2559"
         sodipodi:cy="2397.5"
         sodipodi:rx="351.75"
         sodipodi:ry="351.75"
         style="fill:none;stroke:#ff9400;stroke-width:233.52835083;stroke-miterlimit:4;stroke-dasharray:none"
         d="m 2910.75,2397.5 c 0,194.2662 -157.4838,351.75 -351.75,351.75 -194.2662,0 -351.75,-157.4838 -351.75,-351.75 0,-194.2662 157.4838,-351.75 351.75,-351.75 194.2662,0 351.75,157.4838 351.75,351.75 z"
         transform="matrix(0.85754446,0,0,-0.85754446,1742.5515,2449.6634)" />
      <circle
         cx="2559"
         cy="2397.5"
         id="nonconn5"
         r="351.75"
         sodipodi:cx="2559"
         sodipodi:cy="2397.5"
         sodipodi:rx="351.75"
         sodipodi:ry="351.75"
         style="fill:none;stroke:#ff9400;stroke-width:233.52835083;stroke-miterlimit:4;stroke-dasharray:none"
         d="m 2910.75,2397.5 c 0,194.2662 -157.4838,351.75 -351.75,351.75 -194.2662,0 -351.75,-157.4838 -351.75,-351.75 0,-194.2662 157.4838,-351.75 351.75,-351.75 194.2662,0 351.75,157.4838 351.75,351.75 z"
         transform="matrix(0.85754446,0,0,-0.85754446,1742.5515,4811.8682)" />
    </g>
  </g>
</svg>
